<svg id="Layer_1" data-name="Layer 1" xmlns="http://www.w3.org/2000/svg" viewBox="0 0 58.87 87.05"><defs><style>.cls-1{fill:#23429b;}.cls-2{fill:#fff;}</style></defs><title>humidity</title><path class="cls-1" d="M60.83,59A29.49,29.49,0,0,1,42.05,87.07,29,29,0,0,1,9.95,79.41C1.88,70.3-.34,59.81,4.64,48.67c4.2-9.4,9.38-18.36,14.24-27.45,3.06-5.71,6.31-11.32,9.52-17,1.66-2.91,4-3.06,5.59-.21,7.66,13.52,15.35,27,22.76,40.68C59.23,49.3,61.17,54.24,60.83,59ZM52,63.49l-.43-.19c-.1-.85-.18-1.71-.32-2.55-.67-4-3.14-6.55-6.74-7a8,8,0,0,0-8.87,5.14,12.43,12.43,0,0,0-.17,9.3A7.53,7.53,0,0,0,42,73.45c3.05.31,5.81-.59,7.38-3.26C50.57,68.15,51.12,65.74,52,63.49ZM30.33,50.61a29.49,29.49,0,0,0-.65-3.89c-1-3.16-2.95-5.3-6.36-5.73s-6.44.65-8.3,3.78a11.74,11.74,0,0,0-.5,11.39c1.67,3.63,5.15,5.16,9.06,4.31S30.15,55.82,30.33,50.61Zm13.09-9.39c-3.5-.8-3.81-.7-5.3,1.93Q30.26,57,22.44,71c-.42.76-.72,1.59-1.07,2.38,1.77-.28,3.56,1.32,4.81-.95,5.41-9.85,11-19.62,16.44-29.43C42.92,42.42,43.14,41.83,43.42,41.22Z" transform="translate(-2 -2)"/><path class="cls-2" d="M52,63.49c-.84,2.25-1.38,4.66-2.58,6.7C47.8,72.86,45,73.76,42,73.45a7.53,7.53,0,0,1-6.57-5.3,12.43,12.43,0,0,1,.17-9.3,8,8,0,0,1,8.87-5.14c3.6.48,6.07,3,6.74,7,.14.84.21,1.7.32,2.55Zm-5.68.08a25,25,0,0,0-1.1-4.28,2.22,2.22,0,0,0-4.09-.15A9.15,9.15,0,0,0,41,67.87a2.83,2.83,0,0,0,2.19,1.26,2.85,2.85,0,0,0,2.08-1.41A21.76,21.76,0,0,0,46.27,63.56Z" transform="translate(-2 -2)"/><path class="cls-2" d="M30.33,50.61c-.18,5.21-2.71,9-6.75,9.87s-7.38-.67-9.06-4.31A11.74,11.74,0,0,1,15,44.78c1.86-3.14,4.78-4.23,8.3-3.78s5.41,2.57,6.36,5.73A29.49,29.49,0,0,1,30.33,50.61ZM25,50.78a18.67,18.67,0,0,0-.94-4,3.14,3.14,0,0,0-2.2-1.55,2.78,2.78,0,0,0-2.14,1.32,8.9,8.9,0,0,0-.16,8.19A3.27,3.27,0,0,0,22,56.32a3,3,0,0,0,2.12-1.65A18.26,18.26,0,0,0,25,50.78Z" transform="translate(-2 -2)"/><path class="cls-2" d="M43.42,41.22c-.28.61-.49,1.21-.8,1.75-5.49,9.81-11,19.58-16.44,29.43-1.25,2.27-3,.66-4.81.95.35-.8.65-1.63,1.07-2.38Q30.26,57,38.12,43.15C39.61,40.51,39.92,40.42,43.42,41.22Z" transform="translate(-2 -2)"/><path class="cls-1" d="M46.27,63.56a21.76,21.76,0,0,1-1,4.15,2.85,2.85,0,0,1-2.08,1.41A2.83,2.83,0,0,1,41,67.87a9.15,9.15,0,0,1,.11-8.73,2.22,2.22,0,0,1,4.09.15A25,25,0,0,1,46.27,63.56Z" transform="translate(-2 -2)"/><path class="cls-1" d="M25,50.78a18.26,18.26,0,0,1-.91,3.89A3,3,0,0,1,22,56.32a3.27,3.27,0,0,1-2.4-1.56,8.9,8.9,0,0,1,.16-8.19,2.78,2.78,0,0,1,2.14-1.32,3.14,3.14,0,0,1,2.2,1.55A18.67,18.67,0,0,1,25,50.78Z" transform="translate(-2 -2)"/></svg>